<svg class="img-fluid" id="outputsvg" xmlns="http://www.w3.org/2000/svg" style="transform: none; transform-origin: 50% 50%; cursor: move;" width="64" height="64" viewBox="0 0 640 640"><g id="l7IT4VzdiEJ8bRP2odK76V1" fill="rgb(0,0,0)" style="transform: none;"><g><path id="pHxsn4ktU" d="M7 633 c-4 -3 -7 -134 -7 -290 l0 -283 33 -20 c17 -11 44 -20 60 -20 15 0 27 -4 27 -10 0 -5 25 -10 55 -10 30 0 55 5 55 10 0 6 37 10 90 10 53 0 90 -4 90 -10 0 -5 25 -10 55 -10 30 0 55 4 55 9 0 4 18 11 41 14 82 11 80 3 77 326 l-3 286 -311 3 c-171 1 -313 -1 -317 -5z m501 -79 c-4 -3 -88 -5 -188 -5 -100 0 -184 2 -188 5 -3 3 82 6 188 6 106 0 191 -3 188 -6z m-188 -109 l225 0 6 35 c4 19 7 -17 8 -82 l1 -118 -240 0 -240 0 1 118 c1 65 4 101 8 82 l6 -35 225 0z m-200 -291 c0 -14 -3 -14 -15 -4 -8 7 -15 14 -15 16 0 2 7 4 15 4 8 0 15 -7 15 -16z m290 -4 c0 -19 -7 -20 -90 -20 -83 0 -90 1 -90 20 0 19 7 20 90 20 83 0 90 -1 90 -20z m140 16 c0 -2 -7 -9 -15 -16 -12 -10 -15 -10 -15 4 0 9 7 16 15 16 8 0 15 -2 15 -4z"></path><path id="p1HQf5WFxw" d="M96 384 c-3 -9 -6 -26 -6 -39 0 -56 -6 -54 230 -54 236 0 230 -2 230 54 0 56 6 54 -230 54 -187 0 -219 -2 -224 -15z"></path></g></g><g id="lhofxT60KNEU5BdujKx7gm" fill="rgb(255,255,255)" style="transform: none;"><g><path id="p1DJ2sjZjM" d="M0 593 l0 -48 20 32 c10 17 32 39 47 47 l28 15 -47 1 -48 0 0 -47z"></path><path id="p1BevT5Thc" d="M577 620 c17 -10 39 -32 47 -47 l15 -28 1 48 0 47 -47 0 -48 0 32 -20z"></path><path id="p1069NthsP" d="M75 565 c-24 -23 -25 -28 -25 -170 l0 -145 270 0 270 0 0 145 c0 142 -1 147 -25 170 l-24 25 -221 0 -221 0 -24 -25z m140 -70 c0 -16 -8 -21 -39 -23 -46 -4 -65 10 -46 33 20 24 85 16 85 -10z m144 16 c27 -17 4 -41 -39 -41 -28 0 -43 5 -47 16 -7 19 13 34 47 34 14 0 31 -4 39 -9z m151 -6 c18 -22 3 -35 -40 -35 -41 0 -55 11 -46 35 7 20 70 20 86 0z m-295 -160 c0 -16 -8 -21 -39 -23 -40 -3 -59 10 -49 35 4 10 19 13 47 11 33 -2 41 -7 41 -23z m150 0 c0 -16 -8 -21 -39 -23 -43 -4 -62 8 -52 33 4 12 16 15 48 13 35 -2 43 -7 43 -23z m148 13 c8 -26 -6 -38 -43 -38 -41 0 -55 11 -46 35 7 19 82 20 89 3z"></path><path id="p83NbGKtr" d="M50 175 c0 -33 42 -75 74 -75 21 0 25 5 28 33 2 24 8 32 23 32 15 0 21 -8 23 -32 l3 -33 119 0 119 0 3 33 c2 24 8 32 23 32 15 0 21 -8 23 -32 3 -28 7 -33 28 -33 32 0 74 42 74 75 l0 25 -270 0 -270 0 0 -25z"></path><path id="pLwse7pjf" d="M0 73 l0 -73 79 0 c78 0 78 0 73 25 -3 19 -11 25 -29 25 -37 0 -82 27 -103 63 l-20 32 0 -72z"></path><path id="pDKAbw3Zf" d="M626 122 c-11 -33 -53 -63 -94 -69 -32 -4 -41 -10 -45 -29 -4 -24 -3 -24 74 -24 l79 0 0 70 c0 71 -4 85 -14 52z"></path><path id="pZo4VS7Ag" d="M200 41 c0 -5 -3 -16 -6 -25 -5 -14 10 -16 126 -16 116 0 131 2 126 16 -3 9 -6 20 -6 25 0 5 -54 9 -120 9 -66 0 -120 -4 -120 -9z"></path></g></g></svg>