<svg class="img-fluid" id="outputsvg" xmlns="http://www.w3.org/2000/svg" style="transform: none; transform-origin: 50% 50%; cursor: move;" width="64" height="64" viewBox="0 0 640 640"><g id="l4YWdgOBXq8SIiVVQRoYmNM" fill="rgb(0,0,0)" style="transform: none;"><g><path id="ppHsThlHz" d="M254 508 c-75 -49 -169 -149 -189 -201 -38 -101 29 -207 130 -207 32 0 101 34 114 57 11 17 11 17 22 0 13 -23 82 -57 114 -57 101 0 168 106 130 207 -29 74 -202 233 -255 233 -9 0 -39 -14 -66 -32z m140 -32 c118 -84 184 -181 170 -251 -19 -106 -136 -138 -211 -58 l-33 34 -33 -34 c-102 -109 -260 -1 -199 136 11 24 34 60 53 82 39 45 158 135 178 135 7 0 41 -20 75 -44z"></path></g></g></svg>